<?xml version="1.0" standalone="no"?>
<!DOCTYPE svg PUBLIC "-//W3C//DTD SVG 20010904//EN"
 "http://www.w3.org/TR/2001/REC-SVG-20010904/DTD/svg10.dtd">
<svg version="1.0" xmlns="http://www.w3.org/2000/svg"
 width="64.000000pt" height="64.000000pt" viewBox="0 0 64.000000 64.000000"
 preserveAspectRatio="xMidYMid meet">
<metadata>
Created by potrace 1.16, written by Peter Selinger 2001-2019
</metadata>
<g transform="translate(0.000000,64.000000) scale(0.100000,-0.100000)"
fill="#000000" stroke="none">
<path d="M86 478 c-47 -40 -86 -80 -85 -88 0 -14 153 -150 178 -158 7 -2 11
11 11 37 l0 41 144 0 c136 0 145 1 148 20 3 17 10 13 58 -27 30 -25 55 -49 55
-54 0 -4 -25 -29 -55 -55 -50 -43 -55 -45 -58 -26 -3 21 -7 22 -164 22 -123 0
-159 -3 -156 -12 3 -10 44 -14 146 -16 l142 -3 0 -35 c0 -29 3 -35 16 -30 30
11 174 141 173 156 0 14 -153 150 -178 158 -7 2 -11 -11 -11 -37 l0 -41 -144
0 c-136 0 -145 -1 -148 -20 -3 -17 -10 -13 -58 27 -30 25 -55 49 -55 54 0 4
25 29 55 55 50 43 55 45 58 26 3 -21 7 -22 164 -22 123 0 159 3 156 13 -3 9
-44 13 -146 15 l-142 3 0 34 c0 19 -4 35 -9 35 -5 0 -47 -33 -95 -72z"/>
</g>
</svg>
